# Blender v2.74 (sub 5) OBJ File: 'Walls.blend'
# www.blender.org
o Block_OutsideCorner_Top_Cube.040
v 0.300000 0.500019 0.500000
v -0.500000 0.500019 0.500000
v -0.500000 0.500019 -0.300000
v 0.300000 0.500019 -0.300000
v 0.300000 0.600020 0.500000
v -0.500000 0.600020 0.500000
v -0.500000 0.600020 -0.300000
v 0.300000 0.600020 -0.300000
v -0.100000 0.708522 0.100000
v 0.200000 -0.500000 0.500000
v -0.500000 -0.500000 0.500000
v -0.500000 -0.500000 -0.200000
v 0.200000 -0.500000 -0.200000
v 0.200000 0.500000 0.500000
v -0.500000 0.500000 0.500000
v -0.500000 0.500000 -0.200000
v 0.200000 0.500000 -0.200000
v -0.500000 0.500000 0.290000
v -0.500000 0.500000 0.010000
v -0.500000 -0.500000 0.010000
v -0.500000 -0.500000 0.290000
v 0.200000 0.500000 0.010000
v 0.200000 0.500000 0.290000
v 0.200000 -0.500000 0.290000
v 0.200000 -0.500000 0.010000
v -0.010000 0.500000 0.500000
v -0.290000 0.500000 0.500000
v -0.290000 -0.500000 0.500000
v -0.010000 -0.500000 0.500000
v -0.290000 0.500000 -0.200000
v -0.010000 0.500000 -0.200000
v -0.010000 -0.500000 -0.200000
v -0.290000 -0.500000 -0.200000
v -0.290000 -0.500000 0.290000
v -0.010000 -0.500000 0.290000
v -0.290000 -0.500000 0.010000
v -0.010000 -0.500000 0.010000
v -0.290000 0.500000 0.010000
v -0.010000 0.500000 0.010000
v -0.290000 0.500000 0.290000
v -0.010000 0.500000 0.290000
v 0.200000 -0.374161 0.500000
v 0.200000 0.374971 0.500000
v -0.500000 0.374971 0.500000
v -0.500000 -0.374161 0.500000
v -0.500000 0.374971 -0.200000
v -0.500000 -0.374161 -0.200000
v 0.200000 0.374971 -0.200000
v 0.200000 -0.374161 -0.200000
v -0.500000 0.374971 0.290000
v -0.500000 -0.374161 0.290000
v -0.500000 0.374971 0.010000
v -0.500000 -0.374161 0.010000
v 0.200000 0.374971 0.010000
v 0.200000 -0.374161 0.010000
v 0.200000 0.374971 0.290000
v 0.200000 -0.374161 0.290000
v -0.010000 0.374971 0.500000
v -0.010000 -0.374161 0.500000
v -0.290000 0.374971 0.500000
v -0.290000 -0.374161 0.500000
v -0.290000 0.374971 -0.200000
v -0.290000 -0.374161 -0.200000
v -0.010000 0.374971 -0.200000
v -0.010000 -0.374161 -0.200000
v -0.290000 0.374971 0.010000
v -0.290000 -0.374161 0.010000
v -0.010000 0.374971 0.010000
v -0.010000 -0.374161 0.010000
v -0.010000 0.374971 0.010000
v -0.010000 -0.374161 0.010000
v -0.010000 0.374971 0.290000
v -0.010000 -0.374161 0.290000
vt 0.939068 0.592592
vt 0.939068 0.296296
vt 0.974910 0.296296
vt 0.974910 0.592592
vt 0.964158 0.592592
vt 0.964158 0.888889
vt 0.928315 0.888889
vt 0.928315 0.592592
vt 1.000000 0.592592
vt 1.000000 0.888889
vt 1.000000 0.000000
vt 1.000000 0.296296
vt 0.964158 0.296296
vt 0.964158 0.000000
vt 0.788530 0.296296
vt 0.501792 0.296296
vt 0.501792 0.000000
vt 0.788530 0.000000
vt 0.645161 0.444444
vt 0.788530 0.592592
vt 0.501792 0.592592
vt 0.175627 0.694134
vt 0.250896 0.694134
vt 0.250896 0.740741
vt 0.175627 0.740741
vt 0.175627 0.323763
vt 0.250896 0.323763
vt 0.250896 0.370370
vt 0.175627 0.370370
vt 0.426523 0.323763
vt 0.501792 0.323763
vt 0.501792 0.370370
vt 0.426523 0.370370
vt 0.426523 0.694134
vt 0.501792 0.694134
vt 0.501792 0.740741
vt 0.426523 0.740741
vt 0.075269 0.818519
vt 0.000000 0.818519
vt 0.000000 0.740741
vt 0.075269 0.740741
vt 0.577061 0.774074
vt 0.577061 0.851852
vt 0.501792 0.851852
vt 0.501792 0.774074
vt 0.000000 0.323763
vt 0.075269 0.323763
vt 0.075269 0.370370
vt 0.000000 0.370370
vt 0.326165 0.694134
vt 0.326165 0.740741
vt 0.075269 1.000000
vt 0.000000 1.000000
vt 0.000000 0.922222
vt 0.075269 0.922222
vt 0.752688 0.774074
vt 0.752688 0.851852
vt 0.677419 0.851852
vt 0.677419 0.774074
vt 0.000000 0.694134
vt 0.075269 0.694134
vt 0.326165 0.323763
vt 0.326165 0.370370
vt 0.250896 0.818519
vt 0.175627 0.818519
vt 0.577061 0.592592
vt 0.577061 0.670370
vt 0.501792 0.670370
vt 0.250896 1.000000
vt 0.175627 1.000000
vt 0.175627 0.922222
vt 0.250896 0.922222
vt 0.752688 0.592592
vt 0.752688 0.670370
vt 0.677419 0.670370
vt 0.677419 0.592592
vt 0.250896 0.416678
vt 0.175627 0.416678
vt 0.175627 0.000000
vt 0.250896 0.000000
vt 0.250896 0.046307
vt 0.175627 0.046307
vt 0.426523 0.000000
vt 0.501792 0.046307
vt 0.426523 0.046307
vt 0.501792 0.416677
vt 0.426523 0.416677
vt 0.000000 0.000000
vt 0.075269 0.000000
vt 0.075269 0.046307
vt 0.000000 0.046307
vt 0.326165 0.416677
vt 0.326165 0.844444
vt 0.326165 0.948148
vt 0.250896 0.948148
vt 0.250896 0.844444
vt 0.075269 0.416678
vt 0.000000 0.416678
vt 0.326165 0.000000
vt 0.326165 0.046307
vt 0.401434 0.740741
vt 0.401434 0.844444
vt 0.888889 0.000000
vt 0.888889 0.277456
vt 0.788530 0.277456
vt 0.928315 0.870049
vt 0.853046 0.870049
vt 0.853046 0.592592
vt 0.863799 0.573753
vt 0.863799 0.296296
vt 0.939068 0.573753
vt 0.752688 0.870049
vt 0.476702 0.740741
vt 0.476702 0.844444
vt 0.964157 0.277456
vt 0.788530 0.573753
vn 0.000000 0.000000 1.000000
vn -1.000000 0.000000 0.000000
vn -0.000000 0.000000 -1.000000
vn 1.000000 0.000000 -0.000000
vn 0.000000 -1.000000 0.000000
vn 0.261800 0.965100 0.000000
vn -0.000000 0.965100 -0.261800
vn -0.261800 0.965100 -0.000000
vn 0.000000 0.965100 0.261800
vn 0.000000 1.000000 0.000000
s off
f 5/1/1 6/2/1 2/3/1 1/4/1
f 6/5/2 7/6/2 3/7/2 2/8/2
f 7/6/3 8/5/3 4/9/3 3/10/3
f 8/11/4 5/12/4 1/13/4 4/14/4
f 1/15/5 2/16/5 3/17/5 4/18/5
f 8/15/6 9/19/6 5/16/6
f 8/15/7 7/20/7 9/19/7
f 7/20/8 6/21/8 9/19/8
f 6/21/9 5/16/9 9/19/9
f 61/22/1 45/23/1 11/24/1 28/25/1
f 53/26/2 47/27/2 12/28/2 20/29/2
f 65/30/3 49/31/3 13/32/3 32/33/3
f 57/34/4 42/35/4 10/36/4 24/37/4
f 36/38/5 20/39/5 12/40/5 33/41/5
f 40/42/10 18/43/10 15/44/10 27/45/10
f 45/46/2 51/47/2 21/48/2 11/49/2
f 51/47/2 53/26/2 20/29/2 21/48/2
f 49/23/4 55/50/4 25/51/4 13/24/4
f 55/50/4 57/34/4 24/37/4 25/51/4
f 28/52/5 11/53/5 21/54/5 34/55/5
f 34/55/5 21/54/5 20/39/5 36/38/5
f 30/56/10 16/57/10 19/58/10 38/59/10
f 38/59/10 19/58/10 18/43/10 40/42/10
f 42/60/1 59/61/1 29/41/1 10/40/1
f 59/61/1 61/22/1 28/25/1 29/41/1
f 47/27/3 63/62/3 33/63/3 12/28/3
f 63/62/3 65/30/3 32/33/3 33/63/3
f 25/64/5 37/65/5 32/25/5 13/24/5
f 37/65/5 36/38/5 33/41/5 32/25/5
f 23/66/10 41/67/10 26/68/10 14/21/10
f 41/67/10 40/42/10 27/45/10 26/68/10
f 10/69/5 29/70/5 35/71/5 24/72/5
f 29/70/5 28/52/5 34/55/5 35/71/5
f 24/72/5 35/71/5 37/65/5 25/64/5
f 35/71/5 34/55/5 36/38/5 37/65/5
f 17/73/10 31/74/10 39/75/10 22/76/10
f 31/74/10 30/56/10 38/59/10 39/75/10
f 22/76/10 39/75/10 41/67/10 23/66/10
f 39/75/10 38/59/10 40/42/10 41/67/10
f 27/29/1 15/28/1 44/77/1 60/78/1
f 60/78/1 44/77/1 45/23/1 61/22/1
f 19/79/2 16/80/2 46/81/2 52/82/2
f 52/82/2 46/81/2 47/27/2 53/26/2
f 31/83/3 17/17/3 48/84/3 64/85/3
f 64/85/3 48/84/3 49/31/3 65/30/3
f 23/33/4 14/32/4 43/86/4 56/87/4
f 56/87/4 43/86/4 42/35/4 57/34/4
f 15/88/2 18/89/2 50/90/2 44/91/2
f 44/91/2 50/90/2 51/47/2 45/46/2
f 18/89/2 19/79/2 52/82/2 50/90/2
f 50/90/2 52/82/2 53/26/2 51/47/2
f 17/28/4 22/63/4 54/92/4 48/77/4
f 48/77/4 54/92/4 55/50/4 49/23/4
f 22/63/4 23/33/4 56/87/4 54/92/4
f 57/93/10 55/94/10 71/95/10 73/96/10
f 14/49/1 26/48/1 58/97/1 43/98/1
f 43/98/1 58/97/1 59/61/1 42/60/1
f 26/48/1 27/29/1 60/78/1 58/97/1
f 58/97/1 60/78/1 61/22/1 59/61/1
f 16/80/3 30/99/3 62/100/3 46/81/3
f 46/81/3 62/100/3 63/62/3 47/27/3
f 30/99/3 31/83/3 64/85/3 62/100/3
f 65/93/10 63/51/10 67/101/10 69/102/10
f 66/18/3 68/103/3 69/104/3 67/105/3
f 62/51/5 64/93/5 68/96/5 66/24/5
f 64/8/2 65/106/2 69/107/2 68/108/2
f 63/109/4 62/110/4 66/2/4 67/111/4
f 70/73/4 72/108/4 73/107/4 71/112/4
f 54/102/5 56/101/5 72/113/5 70/114/5
f 56/14/3 57/115/3 73/104/3 72/103/3
f 55/116/1 54/15/1 70/110/1 71/109/1
