# Blender v2.74 (sub 5) OBJ File: 'Walls.blend'
# www.blender.org
o Block_InsiderCorner_Bottom_Cube.007
v 0.501544 -0.500000 -0.102151
v 0.501544 -0.500000 0.205939
v 0.501544 -0.000000 -0.102151
v 0.501544 -0.000000 0.205939
v 0.318211 -0.000000 0.205939
v 0.155771 -0.000000 0.205939
v 0.155771 -0.500000 0.205939
v 0.318211 -0.500000 0.205939
v 0.155771 -0.000000 -0.202151
v 0.318211 -0.000000 -0.202151
v 0.318211 -0.500000 -0.202151
v 0.155771 -0.500000 -0.202151
v -0.199314 -0.500000 -0.502233
v 0.108776 -0.500000 -0.502233
v -0.199314 -0.000000 -0.502233
v 0.108776 -0.000000 -0.502233
v -0.199314 -0.000000 -0.002689
v -0.199314 -0.000000 -0.318899
v -0.199314 -0.500000 -0.318899
v -0.199314 -0.500000 -0.002689
v 0.208776 -0.000000 -0.318899
v 0.208776 -0.000000 -0.002689
v 0.208776 -0.500000 -0.002689
v 0.208776 -0.500000 -0.318899
v 1.001544 0.000000 -0.002151
v 1.001544 0.000000 0.305939
v 0.001544 0.000000 0.305939
v 0.001544 0.000000 -0.002151
v 1.001544 0.500000 -0.002151
v 1.001544 0.500000 0.305939
v 0.001544 0.500000 0.305939
v 0.001544 0.500000 -0.002151
v 0.818211 0.500000 0.305939
v 0.184878 0.500000 0.305939
v 0.184878 0.000000 0.305939
v 0.818211 0.000000 0.305939
v 0.184878 0.500000 -0.102151
v 0.818211 0.500000 -0.102151
v 0.818211 0.000000 -0.102151
v 0.184878 0.000000 -0.102151
vt 1.000000 0.205525
vt 0.854006 0.205525
vt 0.854006 0.000000
vt 1.000000 0.000000
vt 0.748187 0.827605
vt 0.659221 0.827605
vt 0.659221 0.622080
vt 0.748187 0.622080
vt 0.085147 0.827605
vt 0.085147 1.000000
vt 0.000000 1.000000
vt 0.000000 0.869849
vt 0.232218 0.623936
vt 0.317365 0.623936
vt 0.317365 0.829461
vt 0.232218 0.829461
vt 0.392808 0.623936
vt 0.392808 0.829461
vt 0.823345 0.827605
vt 0.823345 0.622080
vt 0.464436 0.957756
vt 0.464436 0.827605
vt 0.549583 0.827605
vt 0.549583 1.000000
vt 0.625026 0.827605
vt 0.625026 1.000000
vt 0.160590 0.827605
vt 0.160590 1.000000
vt 0.000000 0.488499
vt 0.000000 0.411051
vt 0.232218 0.411051
vt 0.232218 0.488499
vt 0.996555 0.205525
vt 0.996555 0.411051
vt 0.854006 0.411051
vt 0.653968 0.694024
vt 0.464436 0.694024
vt 0.464436 0.616576
vt 0.607525 0.616576
vt 0.000000 0.622080
vt 0.232218 0.622080
vt 0.232218 0.542120
vt 0.464436 0.542120
vt 0.464436 0.623936
vt 0.232218 0.409502
vt 0.464436 0.409502
vt 0.653968 0.827605
vt 0.705665 0.411051
vt 0.848753 0.411051
vt 0.848753 0.488499
vt 0.659221 0.488499
vt 0.848753 0.622080
vt 0.994747 0.411051
vt 0.994747 0.616576
vt 0.848753 0.616576
vt 0.000000 0.075359
vt 0.000000 0.000000
vt 0.232218 0.000000
vt 0.232218 0.075359
vt 0.970399 0.827605
vt 0.970399 0.622080
vt 0.232218 0.078739
vt 0.464436 0.000000
vt 0.464436 0.078739
vt 0.659221 0.075359
vt 0.464436 0.075359
vt 0.611490 0.000000
vt 0.659221 0.335691
vt 0.854006 0.335691
vt 0.706952 0.411051
vt 0.000000 0.335691
vt 0.232218 0.335691
vt 0.232218 0.338090
vt 0.464436 0.338090
vt 0.611490 0.411051
vt 0.464436 0.411051
vt 0.464436 0.335691
vt 0.706952 0.000000
vt 0.854006 0.075359
vt 0.189532 0.827605
vt 0.000000 0.827605
vt 0.189532 0.622080
vt 0.659221 0.411051
vt 0.659221 0.616576
vn 1.000000 0.000000 0.000000
vn 0.478900 0.000000 -0.877900
vn 0.000000 1.000000 0.000000
vn 0.000000 0.000000 1.000000
vn 0.000000 0.000000 -1.000000
vn 0.000000 -1.000000 0.000000
vn -1.000000 0.000000 0.000000
vn 0.877900 0.000000 -0.478900
vn -0.478900 0.000000 -0.877900
s off
f 3/1/1 4/2/1 2/3/1 1/4/1
f 10/5/2 3/6/2 1/7/2 11/8/2
f 10/9/3 5/10/3 4/11/3 3/12/3
f 4/13/4 5/14/4 8/15/4 2/16/4
f 5/14/4 6/17/4 7/18/4 8/15/4
f 9/19/5 10/5/5 11/8/5 12/20/5
f 1/21/6 2/22/6 8/23/6 11/24/6
f 11/24/6 8/23/6 7/25/6 12/26/6
f 9/27/3 6/28/3 5/10/3 10/9/3
f 18/29/7 15/30/7 13/31/7 19/32/7
f 15/2/5 16/33/5 14/34/5 13/35/5
f 24/36/6 19/37/6 13/38/6 14/39/6
f 17/40/7 18/29/7 19/32/7 20/41/7
f 16/13/8 21/42/8 24/43/8 14/44/8
f 21/42/1 22/45/1 23/46/1 24/43/1
f 23/47/6 20/22/6 19/37/6 24/36/6
f 16/48/3 15/49/3 18/50/3 21/51/3
f 21/51/3 18/50/3 17/52/3 22/7/3
f 29/49/1 30/53/1 26/54/1 25/55/1
f 34/56/4 31/57/4 27/58/4 35/59/4
f 31/60/7 32/19/7 28/20/7 27/61/7
f 38/62/2 29/58/2 25/63/2 39/64/2
f 40/65/6 35/66/6 27/63/6 28/67/6
f 38/68/3 33/69/3 30/35/3 29/70/3
f 30/30/4 33/71/4 36/72/4 26/31/4
f 33/71/4 34/56/4 35/59/4 36/72/4
f 32/45/9 37/73/9 40/74/9 28/46/9
f 37/73/5 38/62/5 39/64/5 40/74/5
f 25/75/6 26/76/6 36/77/6 39/68/6
f 39/68/6 36/77/6 35/66/6 40/65/6
f 32/78/3 31/3/3 34/79/3 37/65/3
f 37/65/3 34/79/3 33/69/3 38/68/3
f 20/80/4 23/81/4 22/40/4 17/82/4
f 7/83/7 6/84/7 9/38/7 12/76/7
