# Blender v2.75 (sub 4) OBJ File: 'Retaining_wall.blend'
# www.blender.org
o Adaridge_M_B_Cube.004
v 0.300000 -0.300000 -0.248631
v 0.700000 -0.500000 -0.248631
v 0.300000 -0.500000 -0.248631
v 0.700000 -0.100000 -0.248631
v 0.700000 -0.300000 -0.248631
v -0.100000 -0.500000 -0.248631
v 0.300000 -0.100000 -0.248631
v -0.300000 -0.500000 -0.248631
v -0.300000 -0.100000 -0.248631
v -0.100000 -0.100000 -0.248631
v -0.100000 0.300000 -0.048631
v 0.300000 0.500000 -0.148631
v -0.100000 0.500000 -0.148631
v 0.300000 0.300000 -0.148631
v -0.100000 0.300000 -0.148631
v -0.700000 0.300000 -0.148631
v -0.700000 -0.100000 -0.148631
v -0.500000 -0.100000 -0.148631
v -0.500000 0.500000 -0.048631
v -0.500000 0.100000 -0.048631
v -0.100000 0.500000 -0.048631
v -0.100000 0.100000 -0.148631
v -0.500000 0.100000 -0.148631
v -0.100000 -0.100000 -0.148631
v -0.500000 0.500000 -0.148631
v -0.700000 0.500000 -0.148631
v -0.500000 0.300000 -0.148631
v 0.700000 -0.100000 -0.048631
v 0.300000 -0.100000 -0.048631
v -0.300000 -0.100000 -0.048631
v -0.500000 -0.100000 -0.048631
v -0.100000 0.100000 -0.048631
v -0.100000 -0.100000 -0.048631
v -0.700000 -0.100000 -0.048631
v -0.500000 0.300000 -0.048631
v 0.300000 0.300000 -0.048631
v -0.700000 0.500000 -0.048631
v -0.300000 -0.500000 -0.048631
v 0.700000 -0.500000 -0.048631
v 0.700000 -0.300000 -0.048631
v 0.300000 0.500000 -0.048631
v -0.700000 0.300000 -0.048631
v -0.500000 0.500000 0.251369
v -0.100000 0.500000 0.251369
v 0.700000 -0.100000 0.251369
v 0.300000 -0.100000 0.251369
v -0.700000 -0.100000 0.251369
v -0.700000 0.500000 0.251369
v -0.300000 -0.500000 0.251369
v -0.300000 -0.100000 0.251369
v -0.500000 -0.100000 0.251369
v -0.100000 -0.100000 0.251369
v 0.700000 -0.500000 0.251369
v 0.700000 -0.300000 0.251369
v 0.300000 0.500000 0.251369
v 0.300000 0.300000 0.251369
v -0.700000 0.300000 0.251369
vt 0.606510 0.714982
vt 0.606510 0.428339
vt 0.534849 0.428339
vt 0.534849 0.714982
vt 0.606510 0.571661
vt 0.534849 0.571661
vt 0.606510 0.858304
vt 0.534849 0.858304
vt 0.428339 0.606510
vt 0.714982 0.606510
vt 0.714982 0.534849
vt 0.428339 0.534849
vt 0.141696 0.606510
vt -0.001625 0.606510
vt -0.001625 0.534849
vt 0.141696 0.534849
vt -0.001625 0.319867
vt 0.141696 0.319867
vt 0.428339 0.319867
vt 0.714982 0.319867
vt 0.319867 0.428339
vt 0.319867 0.714982
vt 0.428339 0.678171
vt 0.285018 0.678171
vt 0.285018 0.534849
vt 0.714982 0.678171
vt 1.001625 0.678171
vt 1.001625 0.534849
vt 0.678171 0.428339
vt 0.678171 0.141696
vt 0.534849 0.141696
vt 0.678171 0.285018
vt 0.534849 0.285018
vt 0.319867 0.285018
vt 0.319867 0.141696
vt 0.319867 0.858304
vt 1.001625 0.319867
vt 0.666667 -0.000000
vt 0.666667 0.250000
vt 0.333333 0.250000
vt 0.333333 0.000000
vt 0.000000 0.500000
vt 0.000000 0.250000
vt 0.333333 0.500000
vt 1.000000 1.000000
vt 0.666667 1.000000
vt 0.666667 0.500000
vt 1.000000 0.500000
vt 0.000000 0.000000
vt 1.000000 0.000000
vt 0.333333 1.000000
vt 0.166667 0.750000
vt 0.166667 0.500000
vt 0.333333 0.750000
vn -1.000000 0.000000 0.000000
vn 1.000000 -0.000000 0.000000
vn 0.000000 -1.000000 0.000000
vn 0.000000 1.000000 0.000000
vn 0.000000 0.000000 -1.000000
g Adaridge_M_B_Cube.004_Top
s off
f 16/1/1 17/2/1 34/3/1 42/4/1
f 24/2/2 22/5/2 32/6/2 33/3/2
f 13/7/1 15/1/1 11/4/1 21/8/1
f 15/9/3 14/10/3 36/11/3 11/12/3
f 27/1/2 25/7/2 19/8/2 35/4/2
f 12/10/4 13/9/4 21/12/4 41/11/4
f 25/13/4 26/14/4 37/15/4 19/16/4
f 19/16/4 37/15/4 48/17/4 43/18/4
f 21/12/4 19/16/4 43/18/4 44/19/4
f 41/11/4 21/12/4 44/19/4 55/20/4
f 42/4/1 34/3/1 47/21/1 57/22/1
f 10/23/4 9/24/4 30/25/4 33/12/4
f 7/26/4 10/23/4 33/12/4 29/11/4
f 4/27/4 7/26/4 29/11/4 28/28/4
f 18/2/2 27/1/2 35/4/2 31/3/2
f 22/9/4 23/13/4 20/16/4 32/12/4
f 9/29/1 8/30/1 38/31/1 30/3/1
f 18/13/3 24/9/3 33/12/3 31/16/3
f 17/14/3 18/13/3 31/16/3 34/15/3
f 5/32/2 4/29/2 28/3/2 40/33/2
f 2/30/2 5/32/2 40/33/2 39/31/2
f 14/1/2 12/7/2 41/8/2 36/4/2
f 26/7/1 16/1/1 42/4/1 37/8/1
f 39/31/2 40/33/2 54/34/2 53/35/2
f 40/33/2 28/3/2 45/21/2 54/34/2
f 34/15/3 31/16/3 51/18/3 47/17/3
f 31/16/3 33/12/3 52/19/3 51/18/3
f 37/8/1 42/4/1 57/22/1 48/36/1
f 29/3/2 36/4/2 56/22/2 46/21/2
f 28/28/4 29/11/4 46/20/4 45/37/4
f 30/3/1 38/31/1 49/35/1 50/21/1
f 36/4/2 41/8/2 55/36/2 56/22/2
g Adaridge_M_B_Cube.004_Face1
f 12/38/5 14/39/5 15/40/5 13/41/5
f 5/42/5 2/43/5 3/40/5 1/44/5
f 4/40/5 5/41/5 1/38/5 7/39/5
f 10/45/5 7/46/5 3/47/5 6/48/5
f 9/41/5 10/40/5 6/43/5 8/49/5
f 11/48/5 36/47/5 29/38/5 33/50/5
f 16/40/5 27/44/5 18/42/5 17/43/5
f 19/46/5 21/51/5 32/44/5 20/47/5
f 22/44/5 24/40/5 18/39/5 23/47/5
f 25/52/5 27/53/5 16/44/5 26/54/5
