# Blender v2.74 (sub 5) OBJ File: 'Walls.blend'
# www.blender.org
o Block_Left_Bottom.001_Cube.010
v -0.501157 -0.000000 -0.113916
v -0.501157 0.500000 -0.113916
v -0.501157 -0.000000 0.294174
v -0.501157 0.500000 0.294174
v -0.001157 -0.000000 0.294174
v -0.001157 -0.000000 -0.013916
v -0.001157 0.500000 0.294174
v -0.001157 0.500000 -0.013916
v 0.182176 0.500000 0.294174
v 0.182176 -0.000000 0.294174
v 0.182176 0.500000 -0.113916
v 0.182176 -0.000000 -0.113916
v 0.498843 -0.500000 -0.111219
v 0.498843 -0.500000 0.196871
v -0.501157 -0.500000 0.196871
v -0.501157 -0.500000 -0.111219
v 0.498843 -0.000000 -0.111219
v 0.498843 -0.000000 0.196871
v -0.501157 -0.000000 0.196871
v -0.501157 -0.000000 -0.111219
v 0.315509 -0.000000 0.196871
v -0.317824 -0.000000 0.196871
v -0.317824 -0.500000 0.196871
v 0.315509 -0.500000 0.196871
v -0.317824 -0.000000 -0.211219
v 0.315509 -0.000000 -0.211219
v 0.315509 -0.500000 -0.211219
v -0.317824 -0.500000 -0.211219
v -0.001157 -0.000000 -0.013916
v -0.001157 -0.000000 0.294174
v -0.001157 0.500000 -0.013916
v -0.001157 0.500000 0.294174
v -0.184491 0.500000 0.294174
v -0.184491 -0.000000 0.294174
v -0.184491 0.500000 -0.113916
v -0.184491 -0.000000 -0.113916
v 0.498843 0.500000 0.294174
v 0.498843 -0.000000 0.294174
v 0.498843 0.500000 -0.113916
v 0.498843 -0.000000 -0.113916
vt 0.586674 0.922799
vt 0.413326 0.922799
vt 0.413326 0.796421
vt 0.586674 0.796421
vt 1.000000 0.274990
vt 1.000000 0.401368
vt 0.793337 0.401368
vt 0.793337 0.274990
vt 0.966686 0.401368
vt 0.966686 0.600912
vt 0.793337 0.600912
vt 0.000000 0.073166
vt 0.000000 0.000000
vt 0.206663 0.000000
vt 0.206663 0.073166
vt 0.000000 0.798176
vt 0.130871 0.798176
vt 0.130871 0.997720
vt 0.000000 0.997720
vt 0.793337 0.472254
vt 0.619988 0.472254
vt 0.619988 0.399088
vt 0.750859 0.399088
vt 0.000000 0.199544
vt 0.206663 0.199544
vt 0.619988 0.398211
vt 0.619988 0.468498
vt 0.413326 0.468498
vt 0.413326 0.398211
vt 0.793337 0.598632
vt 0.619988 0.598632
vt 0.249141 0.399088
vt 0.380012 0.399088
vt 0.380012 0.472254
vt 0.206663 0.472254
vt 0.261742 0.798176
vt 0.392613 0.798176
vt 0.392613 0.997720
vt 0.261742 0.997720
vt 0.413326 0.325922
vt 0.413326 0.399088
vt 0.206663 0.399088
vt 0.206663 0.325922
vt 0.924208 1.000000
vt 0.793337 1.000000
vt 0.793337 0.800456
vt 0.924208 0.800456
vt 0.619988 0.322487
vt 0.413326 0.322487
vt 0.173349 0.472254
vt 0.000000 0.472254
vt 0.000000 0.399088
vt 0.130871 0.399088
vt 0.619988 0.325922
vt 0.793337 0.325922
vt 0.793337 0.399088
vt 0.662466 0.399088
vt 0.413326 0.000000
vt 0.413326 0.073166
vt 0.619988 0.000000
vt 0.619988 0.070287
vt 0.413326 0.070287
vt 0.000000 0.725010
vt 0.173349 0.725010
vt 0.662466 0.000000
vt 0.793337 0.000000
vt 0.793337 0.073166
vt 0.619988 0.073166
vt 1.000000 0.126100
vt 1.000000 0.201824
vt 0.793337 0.201824
vt 0.793337 0.126100
vt 0.793337 0.727290
vt 0.966686 0.727290
vt 0.966686 0.800456
vt 0.835815 0.800456
vt 1.000000 0.000000
vt 0.544196 0.995965
vt 0.413326 0.995965
vt 0.380012 0.598632
vt 0.206663 0.598632
vt 0.619988 0.594598
vt 0.413326 0.594598
vn 0.000000 -1.000000 0.000000
vn 0.000000 0.000000 1.000000
vn -1.000000 0.000000 0.000000
vn -0.478900 0.000000 -0.877900
vn 0.000000 1.000000 -0.000000
vn 1.000000 0.000000 -0.000000
vn 0.478900 0.000000 -0.877900
vn -0.000000 0.000000 -1.000000
s off
f 36/1/1 34/2/1 3/3/1 1/4/1
f 33/5/2 4/6/2 3/7/2 34/8/2
f 1/7/3 3/9/3 4/10/3 2/11/3
f 9/12/2 7/13/2 5/14/2 10/15/2
f 7/16/3 8/17/3 6/18/3 5/19/3
f 12/20/1 10/21/1 5/22/1 6/23/1
f 37/24/2 9/12/2 10/15/2 38/25/2
f 8/26/4 11/27/4 12/28/4 6/29/4
f 40/30/1 38/31/1 10/21/1 12/20/1
f 8/32/5 7/33/5 9/34/5 11/35/5
f 17/36/6 18/37/6 14/38/6 13/39/6
f 22/40/2 19/41/2 15/42/2 23/43/2
f 19/44/3 20/45/3 16/46/3 15/47/3
f 26/48/7 17/26/7 13/29/7 27/49/7
f 28/50/1 23/51/1 15/52/1 16/53/1
f 26/54/5 21/55/5 18/56/5 17/57/5
f 18/58/2 21/59/2 24/15/2 14/14/2
f 21/59/2 22/40/2 23/43/2 24/15/2
f 20/60/4 25/61/4 28/62/4 16/58/4
f 25/61/8 26/48/8 27/49/8 28/62/8
f 13/17/1 14/16/1 24/63/1 27/64/1
f 27/64/1 24/63/1 23/51/1 28/50/1
f 20/65/5 19/66/5 22/67/5 25/68/5
f 25/68/5 22/67/5 21/55/5 26/54/5
f 31/17/6 32/36/6 30/39/6 29/18/6
f 35/69/7 31/70/7 29/71/7 36/72/7
f 35/73/5 33/74/5 32/75/5 31/76/5
f 32/70/2 33/5/2 34/8/2 30/71/2
f 2/77/8 35/69/8 36/72/8 1/66/8
f 29/78/1 30/79/1 34/2/1 36/1/1
f 2/11/5 4/10/5 33/74/5 35/73/5
f 11/35/5 9/34/5 37/80/5 39/81/5
f 11/27/8 39/82/8 40/83/8 12/28/8
f 39/82/6 37/80/6 38/25/6 40/30/6
