# Blender v2.75 (sub 4) OBJ File: ''
# www.blender.org
o Cube.001_Cube.038_Smooth
v 0.500000 -0.200000 0.200000
v 0.500000 -0.200000 0.400000
v 0.500000 -0.500000 0.400000
v 0.500000 -0.500000 0.200000
v -0.500000 -0.200000 0.400000
v -0.500000 -0.500000 0.400000
v -0.500000 -0.200000 0.200000
v -0.500000 -0.500000 0.200000
v 0.333333 -0.500000 0.400000
v 0.166667 -0.500000 0.400000
v -0.000000 -0.500000 0.400000
v -0.166667 -0.500000 0.400000
v -0.333333 -0.500000 0.400000
v 0.333333 -0.500000 0.200000
v 0.166667 -0.500000 0.200000
v -0.000000 -0.500000 0.200000
v -0.166667 -0.500000 0.200000
v -0.333333 -0.500000 0.200000
v 0.333333 -0.200000 0.200000
v 0.166667 -0.200000 0.200000
v -0.000000 -0.200000 0.200000
v -0.166667 -0.200000 0.200000
v -0.333333 -0.200000 0.200000
v 0.333333 -0.200000 0.400000
v 0.166667 -0.200000 0.400000
v -0.000000 -0.200000 0.400000
v -0.166667 -0.200000 0.400000
v -0.333333 -0.200000 0.400000
v -0.166667 -0.000000 0.200000
v -0.333333 -0.000000 0.200000
v -0.166667 -0.000000 0.400000
v -0.333333 -0.000000 0.400000
v -0.000000 -0.100000 0.200000
v -0.166667 -0.100000 0.200000
v -0.000000 -0.100000 0.400000
v -0.166667 -0.100000 0.400000
v 0.333333 0.100000 0.200000
v 0.166667 0.100000 0.200000
v 0.333333 0.100000 0.400000
v 0.166667 0.100000 0.400000
v 0.500000 -0.100000 0.200000
v 0.500000 -0.100000 0.400000
v 0.333333 -0.100000 0.200000
v 0.333333 -0.100000 0.400000
vt 0.000364 0.702162
vt 0.000364 0.901392
vt 0.166388 0.901392
vt 0.166388 0.702162
vt 0.498437 0.702162
vt 0.498437 0.901392
vt 0.664462 0.901392
vt 0.664462 0.702162
vt 0.332413 0.901392
vt 0.332413 0.702162
vt 0.830487 0.901392
vt 0.830487 0.702162
vt 0.996511 0.901392
vt 0.996511 0.702162
vt 0.299208 0.702162
vt 0.299208 0.901392
vt 0.166388 0.303703
vt 0.000364 0.303703
vt 0.000364 0.004858
vt 0.166388 0.004858
vt 0.830487 0.303703
vt 0.996511 0.303703
vt 0.996511 0.004858
vt 0.830487 0.004858
vt 0.398823 0.702162
vt 0.398823 0.901392
vt 0.498437 0.303703
vt 0.332413 0.303703
vt 0.332413 0.403318
vt 0.498437 0.403318
vt 0.598052 0.702162
vt 0.598052 0.901392
vt 0.332413 0.004858
vt 0.498437 0.004858
vt 0.664462 0.303703
vt 0.664462 0.004858
vt 0.166388 0.502932
vt 0.332413 0.502932
vt 0.664462 0.602547
vt 0.830487 0.602547
vt 0.996511 0.403318
vt 0.830487 0.403318
vn 0.000000 1.000000 0.000000
vn 1.000000 0.000000 0.000000
vn 0.000000 -0.000000 1.000000
vn -1.000000 0.000000 0.000000
vn 0.000000 0.000000 -1.000000
g Cube.001_Cube.038_Smooth_Cube.001_Cube.038_Smooth_Top
s off
f 7/1/1 5/2/1 28/3/1 23/4/1
f 21/5/1 26/6/1 25/7/1 20/8/1
f 30/4/1 32/3/1 31/9/1 29/10/1
f 34/10/1 36/9/1 35/6/1 33/5/1
f 38/8/1 40/7/1 39/11/1 37/12/1
f 43/12/1 44/11/1 42/13/1 41/14/1
g Cube.001_Cube.038_Smooth_Cube.001_Cube.038_Smooth_Face
f 1/15/2 2/16/2 3/2/2 4/1/2
f 28/17/3 5/18/3 6/19/3 13/20/3
f 5/16/4 7/15/4 8/1/4 6/2/4
f 19/21/5 1/22/5 4/23/5 14/24/5
f 2/16/2 1/15/2 41/25/2 42/26/2
f 23/15/4 28/16/4 32/6/4 30/5/4
f 21/27/5 22/28/5 34/29/5 33/30/5
f 24/16/2 19/15/2 37/31/2 39/32/2
f 7/18/5 23/17/5 18/20/5 8/19/5
f 23/17/5 22/28/5 17/33/5 18/20/5
f 22/28/5 21/27/5 16/34/5 17/33/5
f 21/27/5 20/35/5 15/36/5 16/34/5
f 20/35/5 19/21/5 14/24/5 15/36/5
f 2/22/3 24/21/3 9/24/3 3/23/3
f 24/21/3 25/35/3 10/36/3 9/24/3
f 25/35/3 26/27/3 11/34/3 10/36/3
f 26/27/3 27/28/3 12/33/3 11/34/3
f 27/28/3 28/17/3 13/20/3 12/33/3
f 22/28/5 23/17/5 30/37/5 29/38/5
f 27/16/2 22/15/2 29/5/2 31/6/2
f 28/17/3 27/28/3 31/38/3 32/37/3
f 26/16/2 21/15/2 33/25/2 35/26/2
f 27/28/3 26/27/3 35/30/3 36/29/3
f 19/21/5 20/35/5 38/39/5 37/40/5
f 25/35/3 24/21/3 39/40/3 40/39/3
f 20/15/4 25/16/4 40/32/4 38/31/4
f 24/21/3 2/22/3 42/41/3 44/42/3
f 1/22/5 19/21/5 43/42/5 41/41/5
