# Blender v2.74 (sub 5) OBJ File: 'Walls.blend'
# www.blender.org
o Block_OutsideCorner_Bottom_Cube.037
v 0.201784 -0.500000 0.499420
v -0.498216 -0.500000 0.499420
v -0.498216 -0.500000 -0.200580
v 0.201784 -0.500000 -0.200580
v 0.201784 0.500000 0.499420
v -0.498216 0.500000 0.499420
v -0.498216 0.500000 -0.200580
v 0.201784 0.500000 -0.200580
v -0.498216 0.500000 0.382753
v -0.498216 0.500000 -0.083914
v -0.498216 -0.500000 -0.083914
v -0.498216 -0.500000 0.382753
v 0.201784 0.500000 -0.083914
v 0.201784 0.500000 0.382753
v 0.201784 -0.500000 0.382753
v 0.201784 -0.500000 -0.083914
v 0.085117 0.500000 0.499420
v -0.381549 0.500000 0.499420
v -0.381549 -0.500000 0.499420
v 0.085117 -0.500000 0.499420
v -0.381549 0.500000 -0.200580
v 0.085117 0.500000 -0.200580
v 0.085117 -0.500000 -0.200580
v -0.381549 -0.500000 -0.200580
v -0.381549 -0.500000 0.382753
v 0.085117 -0.500000 0.382753
v -0.381549 -0.500000 -0.083914
v 0.085117 -0.500000 -0.083914
v -0.381549 0.500000 -0.083914
v 0.085117 0.500000 -0.083914
v -0.381549 0.500000 0.382753
v 0.085117 0.500000 0.382753
v 0.201784 -0.256932 0.499420
v 0.201784 0.374971 0.499420
v -0.498216 0.374971 0.499420
v -0.498216 -0.256932 0.499420
v -0.498216 0.374971 -0.200580
v -0.498216 -0.256932 -0.200580
v 0.201784 0.374971 -0.200580
v 0.201784 -0.256932 -0.200580
v -0.498216 0.374971 0.382753
v -0.498216 -0.256932 0.382753
v -0.498216 0.374971 -0.083914
v -0.498216 -0.256932 -0.083914
v 0.201784 0.374971 -0.083914
v 0.201784 -0.256932 -0.083914
v 0.201784 0.374971 0.382753
v 0.201784 -0.256932 0.382753
v 0.085117 0.374971 0.499420
v 0.085117 -0.256932 0.499420
v -0.381549 0.374971 0.499420
v -0.381549 -0.256932 0.499420
v -0.381549 0.374971 -0.200580
v -0.381549 -0.256932 -0.200580
v 0.085117 0.374971 -0.200580
v 0.085117 -0.256932 -0.200580
v -0.381549 0.374971 -0.100580
v -0.381549 -0.256932 -0.100580
v 0.085117 0.374971 -0.100580
v 0.085117 -0.256932 -0.100580
v 0.101784 0.374971 -0.083914
v 0.101784 -0.256932 -0.083914
v 0.101784 0.374971 0.382753
v 0.101784 -0.256932 0.382753
vt 0.527397 0.372524
vt 0.575342 0.372524
vt 0.575342 0.492149
vt 0.527397 0.492150
vt 0.239726 0.864673
vt 0.287671 0.864673
vt 0.287671 0.984299
vt 0.239726 0.984299
vt 0.239726 0.372524
vt 0.287671 0.372524
vt 0.287671 0.492149
vt 0.239726 0.492149
vt 0.527397 0.864673
vt 0.575342 0.864673
vt 0.575342 0.984299
vt 0.527397 0.984299
vt 0.623288 0.057418
vt 0.575342 0.057418
vt 0.575342 0.000000
vt 0.623288 0.000000
vt 0.815068 0.631592
vt 0.863014 0.631592
vt 0.863014 0.689009
vt 0.815068 0.689009
vt 0.000000 0.864673
vt 0.047945 0.864673
vt 0.047945 0.984299
vt 0.000000 0.984299
vt 0.335617 0.864673
vt 0.335617 0.984299
vt 0.623288 0.344505
vt 0.575343 0.344505
vt 0.575343 0.287087
vt 0.623288 0.287087
vt 0.815068 0.344505
vt 0.863014 0.344505
vt 0.863014 0.401922
vt 0.815068 0.401922
vt 0.335617 0.372524
vt 0.335617 0.492150
vt 0.000000 0.372524
vt 0.047945 0.372524
vt 0.047945 0.492150
vt 0.000000 0.492150
vt 0.863014 0.057417
vt 0.815068 0.057417
vt 0.815068 0.000000
vt 0.863014 0.000000
vt 0.575343 0.631592
vt 0.623288 0.631592
vt 0.623288 0.689009
vt 0.575343 0.689009
vt 0.815068 0.287087
vt 0.863014 0.287087
vt 0.623288 0.401922
vt 0.575342 0.401922
vt 0.527397 0.000000
vt 0.575342 0.061533
vt 0.527397 0.061533
vt 0.287671 0.553683
vt 0.239726 0.553683
vt 0.239726 0.000000
vt 0.287671 0.000000
vt 0.287671 0.061533
vt 0.239726 0.061533
vt 0.575342 0.553683
vt 0.527397 0.553683
vt 0.047945 0.553683
vt 0.000000 0.553683
vt 0.335616 0.553683
vt 0.958904 0.918679
vt 0.958904 0.689009
vt 1.000000 0.689009
vt 1.000000 0.918679
vt 0.335616 0.000000
vt 0.335616 0.061533
vt 0.000000 0.000000
vt 0.047945 0.000000
vt 0.047945 0.061533
vt 0.000000 0.061533
vt 0.986301 0.459339
vt 0.986301 0.689009
vt 0.945206 0.689009
vt 0.945206 0.459339
vt 0.767123 0.689009
vt 0.767123 1.000000
vt 0.575343 1.000000
vt 0.986301 0.229670
vt 0.945206 0.229670
vt 0.863014 0.655495
vt 0.904110 0.344505
vt 0.904110 0.655495
vt 0.904110 0.310991
vt 0.904110 0.000000
vt 0.945206 0.000000
vt 0.945206 0.310991
vt 0.958904 1.000000
vt 0.986301 0.000000
vt 0.904110 0.621981
vt 0.945206 0.621981
vt 0.863014 0.310991
vn 0.000000 0.000000 1.000000
vn -1.000000 0.000000 0.000000
vn -0.000000 0.000000 -1.000000
vn 1.000000 0.000000 -0.000000
vn 0.000000 -1.000000 0.000000
vn 0.000000 1.000000 0.000000
s off
f 52/1/1 36/2/1 2/3/1 19/4/1
f 44/5/2 38/6/2 3/7/2 11/8/2
f 56/9/3 40/10/3 4/11/3 23/12/3
f 48/13/4 33/14/4 1/15/4 15/16/4
f 27/17/5 11/18/5 3/19/5 24/20/5
f 31/21/6 9/22/6 6/23/6 18/24/6
f 36/25/2 42/26/2 12/27/2 2/28/2
f 42/26/2 44/5/2 11/8/2 12/27/2
f 40/6/4 46/29/4 16/30/4 4/7/4
f 46/29/4 48/13/4 15/16/4 16/30/4
f 19/31/5 2/32/5 12/33/5 25/34/5
f 25/34/5 12/33/5 11/18/5 27/17/5
f 21/35/6 7/36/6 10/37/6 29/38/6
f 29/38/6 10/37/6 9/22/6 31/21/6
f 33/10/1 50/39/1 20/40/1 1/11/1
f 50/39/1 52/1/1 19/4/1 20/40/1
f 38/41/3 54/42/3 24/43/3 3/44/3
f 54/42/3 56/9/3 23/12/3 24/43/3
f 16/45/5 28/46/5 23/47/5 4/48/5
f 28/46/5 27/17/5 24/20/5 23/47/5
f 14/49/6 32/50/6 17/51/6 5/52/6
f 32/50/6 31/21/6 18/24/6 17/51/6
f 1/36/5 20/35/5 26/53/5 15/54/5
f 20/35/5 19/31/5 25/34/5 26/53/5
f 15/54/5 26/53/5 28/46/5 16/45/5
f 26/53/5 25/34/5 27/17/5 28/46/5
f 8/32/6 22/31/6 30/55/6 13/56/6
f 22/31/6 21/35/6 29/38/6 30/55/6
f 13/56/6 30/55/6 32/50/6 14/49/6
f 30/55/6 29/38/6 31/21/6 32/50/6
f 18/57/1 6/19/1 35/58/1 51/59/1
f 51/59/1 35/58/1 36/2/1 52/1/1
f 10/12/2 7/11/2 37/60/2 43/61/2
f 43/61/2 37/60/2 38/6/2 44/5/2
f 22/62/3 8/63/3 39/64/3 55/65/3
f 55/65/3 39/64/3 40/10/3 56/9/3
f 14/4/4 5/3/4 34/66/4 47/67/4
f 47/67/4 34/66/4 33/14/4 48/13/4
f 6/44/2 9/43/2 41/68/2 35/69/2
f 35/69/2 41/68/2 42/26/2 36/25/2
f 9/43/2 10/12/2 43/61/2 41/68/2
f 41/68/2 43/61/2 44/5/2 42/26/2
f 8/11/4 13/40/4 45/70/4 39/60/4
f 39/60/4 45/70/4 46/29/4 40/6/4
f 13/40/4 14/4/4 47/67/4 45/70/4
f 48/71/6 46/72/6 62/73/6 64/74/6
f 5/63/1 17/75/1 49/76/1 34/64/1
f 34/64/1 49/76/1 50/39/1 33/10/1
f 17/75/1 18/57/1 51/59/1 49/76/1
f 49/76/1 51/59/1 52/1/1 50/39/1
f 7/77/3 21/78/3 53/79/3 37/80/3
f 37/80/3 53/79/3 54/42/3 38/41/3
f 21/78/3 22/62/3 55/65/3 53/79/3
f 56/81/6 54/82/6 58/83/6 60/84/6
f 57/52/3 59/85/3 60/86/3 58/87/3
f 53/88/5 55/81/5 59/84/5 57/89/5
f 55/90/2 56/36/2 60/91/2 59/92/2
f 54/93/4 53/94/4 57/95/4 58/96/4
f 61/85/4 63/72/4 64/97/4 62/86/4
f 45/89/5 47/95/5 63/98/5 61/88/5
f 47/99/3 48/93/3 64/96/3 63/100/3
f 46/101/1 45/48/1 61/94/1 62/93/1
