# Blender v2.74 (sub 5) OBJ File: 'Walls.blend'
# www.blender.org
o Block_Left_Top.002_Cube.009
v 0.492888 0.500749 0.043985
v 0.492888 0.500749 0.509342
v -0.501157 0.500749 0.509342
v -0.501157 0.500749 0.043986
v 0.492888 0.600202 0.043985
v 0.492888 0.600202 0.509342
v -0.501157 0.600202 0.509342
v -0.501157 0.600202 0.043986
v -0.501157 -0.000000 0.086084
v -0.501157 0.500000 0.086084
v -0.501157 -0.000000 0.494174
v -0.501157 0.500000 0.494174
v -0.001157 -0.000000 0.494174
v -0.001157 -0.000000 0.186084
v -0.001157 0.500000 0.494174
v -0.001157 0.500000 0.186084
v 0.182176 0.500000 0.494174
v 0.182176 -0.000000 0.494174
v 0.182176 0.500000 0.086084
v 0.182176 -0.000000 0.086084
v 0.498843 -0.500000 0.088781
v 0.498843 -0.500000 0.396871
v -0.501157 -0.500000 0.396871
v -0.501157 -0.500000 0.088781
v 0.498843 -0.000000 0.088781
v 0.498843 -0.000000 0.396871
v -0.501157 -0.000000 0.396871
v -0.501157 -0.000000 0.088781
v 0.315509 -0.000000 0.396871
v -0.317824 -0.000000 0.396871
v -0.317824 -0.500000 0.396871
v 0.315509 -0.500000 0.396871
v -0.317824 -0.000000 -0.011219
v 0.315509 -0.000000 -0.011219
v 0.315509 -0.500000 -0.011219
v -0.317824 -0.500000 -0.011219
v -0.001157 -0.000000 0.186084
v -0.001157 -0.000000 0.494174
v -0.001157 0.500000 0.186084
v -0.001157 0.500000 0.494174
v -0.184491 0.500000 0.494174
v -0.184491 -0.000000 0.494174
v -0.184491 0.500000 0.086084
v -0.184491 -0.000000 0.086084
v 0.498843 0.500000 0.494174
v 0.498843 -0.000000 0.494174
v 0.498843 0.500000 0.086084
v 0.498843 -0.000000 0.086084
vt 0.931722 0.990614
vt 0.931722 0.799445
vt 0.965861 0.799445
vt 0.965861 0.990614
vt 0.931722 0.397342
vt 0.931722 0.000000
vt 0.965861 0.000000
vt 0.965861 0.397342
vt 0.965861 0.191169
vt 1.000000 0.000000
vt 1.000000 0.191169
vt 0.965861 0.399723
vt 0.965861 0.796387
vt 0.931722 0.796387
vt 0.931722 0.399723
vt 0.679068 0.794684
vt 0.514899 0.794684
vt 0.514899 0.397342
vt 0.679068 0.397342
vt 0.514899 0.000000
vt 0.679068 0.000000
vt 0.823034 0.926024
vt 0.679068 0.926024
vt 0.679068 0.799445
vt 0.823034 0.799445
vt 0.171633 0.872727
vt 0.171633 0.999306
vt 0.000000 0.999306
vt 0.000000 0.872727
vt 0.658865 0.794684
vt 0.658865 0.994545
vt 0.514899 0.994545
vt 0.000000 0.073283
vt 0.000000 0.000000
vt 0.171633 0.000000
vt 0.171633 0.073282
vt 0.823034 0.000000
vt 0.931722 0.199861
vt 0.823034 0.199861
vt 0.823034 0.473005
vt 0.679068 0.473005
vt 0.679068 0.399722
vt 0.787756 0.399722
vt 0.000000 0.199861
vt 0.171633 0.199861
vt 0.343266 0.399041
vt 0.343266 0.328281
vt 0.514899 0.328281
vt 0.514899 0.399041
vt 0.823034 0.599584
vt 0.679068 0.599584
vt 0.714346 0.000000
vt 0.823034 0.073282
vt 0.679068 0.073282
vt 0.823034 0.399723
vt 0.931722 0.599584
vt 0.343266 0.326440
vt 0.343266 0.399722
vt 0.171633 0.399722
vt 0.171633 0.326440
vt 0.931722 0.999306
vt 0.823034 0.999306
vt 0.514899 0.722526
vt 0.514899 0.798081
vt 0.343266 0.798081
vt 0.343266 0.722526
vt 0.315599 0.473005
vt 0.171633 0.473005
vt 0.280321 0.399722
vt 0.000000 0.726162
vt 0.143966 0.726162
vt 0.143966 0.799445
vt 0.035278 0.799445
vt 0.343266 0.000000
vt 0.343266 0.073282
vt 0.514899 0.469800
vt 0.343266 0.469800
vt 0.280321 0.799445
vt 0.171633 0.799445
vt 0.171633 0.726162
vt 0.315599 0.726162
vt 0.035278 0.399722
vt 0.143966 0.399722
vt 0.143966 0.473005
vt 0.000000 0.473005
vt 0.514899 0.924444
vt 0.514899 1.000000
vt 0.343266 1.000000
vt 0.343266 0.924444
vt 0.171633 0.926024
vt 0.315599 0.926024
vt 0.315599 0.999306
vt 0.206911 0.999306
vt 0.000000 0.799445
vt 0.787756 0.999306
vt 0.679068 0.999306
vt 0.315599 0.799445
vt 0.679068 0.199861
vt 0.343266 0.201919
vt 0.514899 0.201919
vn 1.000000 0.000000 -0.000000
vn 0.000000 0.000000 1.000000
vn -1.000000 0.000000 0.000000
vn -0.000000 0.000000 -1.000000
vn 0.000000 -1.000000 -0.000000
vn 0.000000 1.000000 -0.000000
vn -0.478900 0.000000 -0.877900
vn 0.478900 0.000000 -0.877900
s off
f 5/1/1 6/2/1 2/3/1 1/4/1
f 6/5/2 7/6/2 3/7/2 2/8/2
f 7/9/3 8/7/3 4/10/3 3/11/3
f 8/12/4 5/13/4 1/14/4 4/15/4
f 1/16/5 2/17/5 3/18/5 4/19/5
f 8/20/6 7/21/6 6/19/6 5/18/6
f 44/22/5 42/23/5 11/24/5 9/25/5
f 41/26/2 12/27/2 11/28/2 42/29/2
f 9/17/3 11/30/3 12/31/3 10/32/3
f 17/33/2 15/34/2 13/35/2 18/36/2
f 15/37/3 16/6/3 14/38/3 13/39/3
f 20/40/5 18/41/5 13/42/5 14/43/5
f 45/44/2 17/33/2 18/36/2 46/45/2
f 16/46/7 19/47/7 20/48/7 14/49/7
f 48/50/5 46/51/5 18/41/5 20/40/5
f 16/52/6 15/37/6 17/53/6 19/54/6
f 25/55/1 26/15/1 22/56/1 21/50/1
f 30/57/2 27/58/2 23/59/2 31/60/2
f 27/61/3 28/62/3 24/25/3 23/2/3
f 34/63/8 25/64/8 21/65/8 35/66/8
f 36/67/5 31/68/5 23/59/5 24/69/5
f 34/70/6 29/71/6 26/72/6 25/73/6
f 26/74/2 29/75/2 32/36/2 22/35/2
f 29/75/2 30/57/2 31/60/2 32/36/2
f 28/49/7 33/76/7 36/77/7 24/46/7
f 33/76/4 34/63/4 35/66/4 36/77/4
f 21/78/5 22/79/5 32/80/5 35/81/5
f 35/81/5 32/80/5 31/68/5 36/67/5
f 28/82/6 27/83/6 30/84/6 33/85/6
f 33/85/6 30/84/6 29/71/6 34/70/6
f 39/39/1 40/38/1 38/15/1 37/55/1
f 43/86/8 39/87/8 37/88/8 44/89/8
f 43/90/6 41/91/6 40/92/6 39/93/6
f 40/79/2 41/26/2 42/29/2 38/94/2
f 10/64/4 43/86/4 44/89/4 9/65/4
f 37/95/5 38/96/5 42/23/5 44/22/5
f 10/79/6 12/97/6 41/91/6 43/90/6
f 19/54/6 17/53/6 45/39/6 47/98/6
f 19/47/4 47/99/4 48/100/4 20/48/4
f 47/99/1 45/39/1 46/45/1 48/50/1
