# Blender v2.75 (sub 4) OBJ File: 'Retaining_wall.blend'
# www.blender.org
o Adaridge_M_T_Cube.001
v -0.500000 0.500000 0.513086
v -0.500000 0.600000 0.513086
v -0.500000 0.500000 0.015393
v -0.500000 0.600000 0.015393
v 0.493328 0.500000 0.513086
v 0.493328 0.600000 0.513086
v 0.493328 0.500000 0.015393
v 0.493328 0.600000 0.015393
v -0.700000 0.500000 0.051369
v 0.300000 -0.500000 -0.048631
v 0.700000 -0.500000 -0.048631
v 0.300000 -0.100000 -0.048631
v 0.700000 -0.100000 -0.048631
v -0.300000 -0.100000 0.151369
v -0.300000 0.300000 0.151369
v 0.100000 0.300000 0.151369
v -0.300000 -0.500000 -0.048631
v 0.100000 -0.500000 -0.048631
v -0.300000 -0.100000 -0.048631
v 0.100000 -0.100000 -0.048631
v -0.300000 0.300000 0.051369
v 0.100000 0.300000 0.051369
v -0.300000 0.500000 0.051369
v -0.700000 -0.100000 0.051369
v -0.300000 -0.100000 0.051369
v -0.700000 0.100000 0.051369
v -0.300000 0.100000 0.051369
v 0.100000 0.500000 0.051369
v 0.300000 0.500000 0.051369
v 0.300000 0.100000 0.051369
v 0.100000 0.100000 0.051369
v 0.100000 -0.100000 0.151369
v 0.300000 -0.100000 0.051369
v 0.100000 -0.100000 0.051369
v 0.300000 -0.100000 0.451369
v 0.700000 -0.100000 0.451369
v 0.100000 0.500000 0.151369
v 0.100000 0.100000 0.151369
v -0.300000 0.500000 0.151369
v -0.300000 0.100000 0.151369
v 0.700000 -0.500000 0.451369
v -0.300000 -0.500000 0.451369
v -0.300000 -0.100000 0.451369
v -0.700000 0.500000 0.451369
v -0.700000 -0.100000 0.451369
v -0.700000 0.100000 0.451369
v 0.300000 0.500000 0.451369
v 0.300000 0.100000 0.451369
v -0.300000 0.500000 0.451369
vt 2.141286 -0.754266
vt 2.141286 -1.127505
vt 2.060771 -1.127505
vt 2.060771 -0.754266
vt 1.255584 -0.670972
vt 2.060739 -0.670972
vt 2.060739 -0.751488
vt 1.255584 -0.751488
vt 1.256272 -1.124704
vt 1.256272 -0.751466
vt 1.175757 -0.751466
vt 1.175757 -1.124704
vt 2.060739 -1.124682
vt 1.255584 -1.124682
vt 1.255584 -1.205197
vt 2.060739 -1.205197
vt 1.266786 -1.385136
vt 1.266786 -1.011898
vt 2.071942 -1.011898
vt 2.071942 -1.385136
vt 2.060739 -0.751435
vt 1.255584 -0.751435
vt 1.910911 -0.932866
vt 1.910911 -1.335444
vt 2.232973 -1.335444
vt 2.232973 -0.932866
vt 1.708520 -1.374600
vt 1.305942 -1.374600
vt 1.305942 -1.052537
vt 1.708520 -1.052537
vt 1.628004 -1.052537
vt 1.305942 -0.891506
vt 1.628004 -0.891506
vt 1.427817 -0.932866
vt 1.427817 -1.093898
vt 1.749880 -1.093898
vt 1.749880 -0.932866
vt 1.749880 -1.013382
vt 1.910911 -1.013382
vt 1.547489 -1.052537
vt 1.547489 -0.891506
vt 1.547489 -0.569444
vt 1.628004 -0.569444
vt 1.305942 -0.569444
vt 1.427817 -1.013382
vt 1.427817 -1.335444
vt 1.105755 -1.335444
vt 1.105755 -1.013382
vt 0.666667 0.500000
vt 0.666667 1.000000
vt 0.333333 1.000000
vt 0.333333 0.500000
vt 1.000000 0.009760
vt 1.000000 0.500000
vt 0.666667 0.000000
vt 0.333333 0.250000
vt 0.666667 0.250000
vt 1.000000 1.000000
vt 0.000000 0.250000
vt 0.000000 0.000000
vt 0.333333 0.000000
vt 0.000000 0.500000
vt 0.000000 1.000000
vt 0.000000 0.750000
vt 0.166667 0.750000
vt 0.166667 1.000000
vt 1.849833 -1.058187
vt 1.849833 -1.238656
vt 1.127958 -1.238656
vt 1.127958 -1.058187
vn -1.000000 0.000000 0.000000
vn 0.000000 0.000000 -1.000000
vn 1.000000 0.000000 0.000000
vn 0.000000 0.000000 1.000000
vn 0.000000 -1.000000 0.000000
vn 0.000000 1.000000 0.000000
g Adaridge_M_T_Cube.001_Top
s off
f 2/1/1 4/2/1 3/3/1 1/4/1
f 4/5/2 8/6/2 7/7/2 3/8/2
f 8/9/3 6/10/3 5/11/3 7/12/3
f 6/13/4 2/14/4 1/15/4 5/16/4
f 1/17/5 3/18/5 7/19/5 5/20/5
f 6/13/6 8/21/6 4/22/6 2/14/6
f 12/23/6 35/24/6 36/25/6 13/26/6
f 17/27/1 42/28/1 43/29/1 19/30/1
f 24/31/1 45/29/1 46/32/1 26/33/1
f 19/34/6 14/35/6 32/36/6 20/37/6
f 20/37/6 34/38/6 33/39/6 12/23/6
f 34/31/1 32/40/1 38/41/1 31/33/1
f 31/33/1 38/41/1 37/42/1 28/43/1
f 27/33/3 40/41/3 14/40/3 25/31/3
f 23/43/3 39/42/3 40/41/3 27/33/3
f 13/30/3 36/29/3 41/28/3 11/27/3
f 29/43/3 47/44/3 48/32/3 30/33/3
f 30/33/3 48/32/3 35/29/3 33/31/3
f 26/33/1 46/32/1 44/44/1 9/43/1
f 25/45/5 43/46/5 45/47/5 24/48/5
f 9/48/6 44/47/6 49/46/6 23/45/6
g Adaridge_M_T_Cube.001_Face1
f 10/49/2 12/50/2 13/51/2 11/52/2
f 17/53/2 19/54/2 20/49/2 18/55/2
f 24/52/2 26/56/2 27/57/2 25/49/2
f 26/50/2 9/49/2 23/54/2 27/58/2
f 14/52/2 15/49/2 16/50/2 32/51/2
f 28/59/2 22/60/2 21/61/2 23/56/2
f 10/56/2 18/61/2 20/55/2 12/57/2
f 28/56/2 29/52/2 30/62/2 31/59/2
f 30/63/2 33/64/2 34/65/2 31/66/2
g Adaridge_M_T_Cube.001_Face1_mylandscaping_block_split.png
f 22/67/5 16/68/5 15/69/5 21/70/5
