# Blender v2.74 (sub 5) OBJ File: 'Walls.blend'
# www.blender.org
o Block_InsideCorner_Top.001_Cube.008
v 0.492196 0.499740 0.049996
v 0.492196 0.499740 0.515505
v -0.038606 0.499740 0.515505
v 0.492196 0.600283 0.049996
v 0.492196 0.600283 0.515505
v -0.038606 0.600283 0.515505
v -0.038606 0.709599 0.049996
v -0.503953 0.499740 0.515505
v -0.503953 0.499740 -0.497344
v -0.038606 0.499740 -0.497344
v -0.503953 0.600283 0.515505
v -0.503953 0.600283 -0.497344
v -0.038606 0.600283 -0.497344
v -0.503953 0.600283 0.049996
v -0.503953 0.499740 0.049996
v -0.501194 -0.500000 0.504531
v -0.501194 0.500000 0.504531
v -0.501194 -0.500000 -0.495469
v -0.501194 0.500000 -0.495469
v 0.498806 -0.500000 0.504531
v 0.498806 0.500000 0.504531
v 0.498806 -0.500000 -0.495469
v 0.498806 0.500000 -0.495469
v 0.561394 0.499740 -0.497344
v 0.561394 0.600283 -0.497344
v 0.561394 0.499740 0.050237
v 0.561394 0.600283 0.050237
v 0.561394 0.600283 -0.572807
v 0.561394 0.499740 -0.572807
v -0.038606 0.600283 -0.572807
v -0.038606 0.499740 -0.572807
v 0.492716 0.499740 -0.497344
v 0.492716 0.600283 -0.497344
v 0.492716 0.499740 -0.572807
v 0.492716 0.600283 -0.572807
vt 0.000000 0.847049
vt 0.000000 0.694694
vt 0.032556 0.694694
vt 0.032556 0.847049
vt 0.708753 0.540271
vt 0.708753 0.718810
vt 0.676197 0.718810
vt 0.676197 0.540271
vt 0.708753 0.875332
vt 0.676197 0.875332
vt 0.323803 0.391244
vt 0.323803 0.358337
vt 0.348238 0.358337
vt 0.348238 0.391244
vt 0.150906 0.201670
vt 0.000000 0.201810
vt 0.000000 0.023272
vt 0.150731 0.023275
vt 0.708753 0.719407
vt 0.741309 0.540271
vt 0.741309 0.719407
vt 0.806422 0.696794
vt 0.806422 0.540271
vt 0.838978 0.540271
vt 0.838978 0.696794
vt 0.708753 0.871762
vt 0.741309 0.871762
vt 0.150732 0.358334
vt 0.000000 0.358331
vt 0.327959 0.201816
vt 0.327959 0.358337
vt 0.741309 0.564969
vt 0.773866 0.564969
vt 0.773866 0.744185
vt 0.741309 0.744185
vt 0.352394 1.000000
vt 0.352394 0.672714
vt 0.676197 0.672714
vt 0.676197 1.000000
vt 0.352394 0.336357
vt 0.676197 0.336357
vt 1.000000 0.327286
vt 0.676197 0.327286
vt 0.676197 0.000000
vt 1.000000 0.000000
vt 0.323803 0.694694
vt 0.352394 0.000000
vt 0.806422 0.563371
vt 0.773866 0.563371
vt 0.773866 0.540271
vt 0.806422 0.742085
vt 0.773866 0.742085
vt 0.853009 0.361055
vt 0.875863 0.361055
vt 0.875863 0.540271
vt 0.852836 0.540192
vt 0.346830 0.391244
vt 0.346830 0.424150
vt 0.323803 0.424150
vt 0.676197 0.361055
vt 0.853009 0.336357
vt 0.327959 0.023104
vt 0.327959 0.000003
vt 0.352394 0.023104
vt 0.352394 0.201816
vt 0.875863 0.336357
vt 0.150653 0.000000
vn 1.000000 0.000000 0.000000
vn -0.000000 0.000000 1.000000
vn -1.000000 0.000000 0.000000
vn 0.101700 0.988000 0.116000
vn 0.000000 0.000000 -1.000000
vn -0.115900 0.986500 0.115800
vn -0.116100 0.988300 -0.098700
vn 0.000000 -1.000000 0.000000
vn -0.003500 0.000000 1.000000
vn 0.000000 1.000000 0.000000
vn 0.101900 0.989900 -0.098800
s off
f 4/1/1 5/2/1 2/3/1 1/4/1
f 5/5/2 6/6/2 3/7/2 2/8/2
f 6/6/2 11/9/2 8/10/2 3/7/2
f 10/11/3 13/12/3 30/13/3 31/14/3
f 7/15/4 6/16/4 5/17/4 4/18/4
f 14/19/3 12/5/3 9/20/3 15/21/3
f 12/22/5 13/23/5 10/24/5 9/25/5
f 11/26/3 14/19/3 15/21/3 8/27/3
f 7/15/6 14/28/6 11/29/6 6/16/6
f 13/30/7 12/31/7 14/28/7 7/15/7
f 24/32/1 25/33/1 27/34/1 26/35/1
f 17/36/3 19/37/3 18/38/3 16/39/3
f 19/37/5 23/40/5 22/41/5 18/38/5
f 23/42/1 21/43/1 20/44/1 22/45/1
f 21/2/2 17/29/2 16/12/2 20/46/2
f 16/47/8 18/44/8 22/41/8 20/40/8
f 34/48/5 35/49/5 28/50/5 29/23/5
f 25/33/1 24/32/1 29/20/1 28/50/1
f 31/51/5 30/52/5 35/49/5 34/48/5
f 32/53/8 24/54/8 26/55/8 1/56/8
f 1/11/9 26/57/9 27/58/9 4/59/9
f 32/53/8 10/60/8 31/41/8 34/61/8
f 33/62/10 25/63/10 28/47/10 35/64/10
f 13/30/10 33/62/10 35/64/10 30/65/10
f 24/54/8 32/53/8 34/61/8 29/66/8
f 4/18/11 33/62/11 13/30/11 7/15/11
f 25/63/10 33/62/10 4/18/10 27/67/10
