# Blender v2.74 (sub 5) OBJ File: 'Walls.blend'
# www.blender.org
o Block_Pillar_Bottom_Cube.003
v -0.500000 -0.500000 0.500000
v -0.500000 0.500000 0.500000
v -0.500000 -0.500000 -0.300000
v -0.500000 0.500000 -0.300000
v 0.500000 -0.500000 0.500000
v 0.500000 0.500000 0.500000
v 0.500000 -0.500000 -0.300000
v 0.500000 0.500000 -0.300000
v -0.350000 0.350000 -0.300000
v -0.350000 -0.350000 -0.300000
v 0.350000 0.350000 -0.300000
v 0.350000 -0.350000 -0.300000
v -0.350000 0.350000 -0.200000
v -0.350000 -0.350000 -0.200000
v 0.350000 0.350000 -0.200000
v 0.350000 -0.350000 -0.200000
vt 0.370370 0.370370
vt 0.666667 0.370370
vt 0.666667 0.740741
vt 0.370370 0.740741
vt 0.000000 0.000000
vt 0.370370 0.000000
vt 0.314815 0.055556
vt 0.055556 0.055556
vt 0.666667 0.000000
vt 0.000000 0.370370
vt 0.000000 0.740741
vt 0.962963 0.740741
vt 0.962963 0.370370
vt 0.962963 0.000000
vt 1.000000 0.000000
vt 1.000000 0.259259
vt 0.962963 0.259259
vt 0.314815 0.314815
vt 0.055556 0.314815
vt 0.000000 1.000000
vt 0.259259 0.740741
vt 0.259259 1.000000
vt 0.407407 0.740741
vt 0.407407 1.000000
vt 0.370370 1.000000
vt 0.296296 1.000000
vt 0.296296 0.740741
vt 0.333333 0.740741
vt 0.333333 1.000000
vn -1.000000 0.000000 0.000000
vn 0.000000 0.000000 -1.000000
vn 1.000000 0.000000 0.000000
vn 0.000000 0.000000 1.000000
vn 0.000000 -1.000000 0.000000
vn 0.000000 1.000000 0.000000
s off
f 2/1/1 4/2/1 3/3/1 1/4/1
f 8/5/2 7/6/2 12/7/2 11/8/2
f 8/6/3 6/9/3 5/2/3 7/1/3
f 6/10/4 2/1/4 1/4/4 5/11/4
f 1/12/5 3/3/5 7/2/5 5/13/5
f 6/9/6 8/14/6 4/13/6 2/2/6
f 11/15/1 12/16/1 16/17/1 15/14/1
f 7/6/2 3/1/2 10/18/2 12/7/2
f 4/10/2 8/5/2 11/8/2 9/19/2
f 3/1/2 4/10/2 9/19/2 10/18/2
f 13/20/2 15/11/2 16/21/2 14/22/2
f 10/23/3 9/24/3 13/25/3 14/4/3
f 12/26/6 10/27/6 14/28/6 16/29/6
f 9/22/5 11/21/5 15/27/5 13/26/5
