# Blender v2.74 (sub 5) OBJ File: 'Walls.blend'
# www.blender.org
o Block_full_Bottom_Cube.025
v 1.000000 0.000000 -0.004921
v 1.000000 0.000000 0.303169
v -0.000000 0.000000 0.303169
v -0.000000 0.000000 -0.004921
v 1.000000 0.500000 -0.004921
v 1.000000 0.500000 0.303169
v -0.000000 0.500000 0.303169
v -0.000000 0.500000 -0.004921
v 0.816667 0.500000 0.303169
v 0.183333 0.500000 0.303169
v 0.183333 0.000000 0.303169
v 0.816667 0.000000 0.303169
v 0.183333 0.500000 -0.104921
v 0.816667 0.500000 -0.104921
v 0.816667 0.000000 -0.104921
v 0.183333 0.000000 -0.104921
v 0.500000 -0.500000 -0.102225
v 0.500000 -0.500000 0.205866
v -0.500000 -0.500000 0.205866
v -0.500000 -0.500000 -0.102225
v 0.500000 0.000000 -0.102225
v 0.500000 0.000000 0.205866
v -0.500000 0.000000 0.205866
v -0.500000 0.000000 -0.102225
v 0.316667 0.000000 0.205866
v -0.316667 0.000000 0.205866
v -0.316667 -0.500000 0.205866
v 0.316667 -0.500000 0.205866
v -0.316667 0.000000 -0.202225
v 0.316667 0.000000 -0.202225
v 0.316667 -0.500000 -0.202225
v -0.316667 -0.500000 -0.202225
vt 0.858397 0.000000
vt 1.000000 0.000000
vt 1.000000 0.250000
vt 0.858397 0.250000
vt 0.223611 0.908333
vt 0.223611 1.000000
vt 0.000000 1.000000
vt 0.000000 0.908333
vt 0.858397 0.500000
vt 1.000000 0.500000
vt 1.000000 0.750000
vt 0.858397 0.750000
vt 0.670832 0.408333
vt 0.670832 0.500000
vt 0.447221 0.500000
vt 0.447221 0.408333
vt 0.634786 0.591667
vt 0.447221 0.591667
vt 0.588824 0.500000
vt 0.858397 0.591667
vt 0.670832 0.591667
vt 0.812435 0.500000
vt 0.223611 0.500000
vt 0.223611 0.591667
vt 0.000000 0.591667
vt 0.000000 0.500000
vt 0.670832 0.000000
vt 0.670832 0.091667
vt 0.447221 0.091667
vt 0.447221 0.000000
vt 0.588825 1.000000
vt 0.447221 1.000000
vt 0.447221 0.908333
vt 0.634786 0.908333
vt 0.812435 1.000000
vt 0.670832 1.000000
vt 0.670832 0.908333
vt 0.858397 0.908333
vt 0.223611 0.091667
vt 0.223611 0.000000
vt 1.000000 1.000000
vt 0.858397 1.000000
vt 0.223611 0.408333
vt 0.000000 0.408333
vt 0.411175 0.591667
vt 0.365214 0.500000
vt 0.858397 0.408333
vt 0.716794 0.500000
vt 0.000000 0.091667
vt 0.000000 0.000000
vt 0.365214 1.000000
vt 0.411175 0.908333
vt 0.716794 0.000000
vt 0.858397 0.091667
vn 1.000000 0.000000 0.000000
vn 0.000000 0.000000 1.000000
vn -1.000000 0.000000 0.000000
vn 0.478900 0.000000 -0.877900
vn 0.000000 -1.000000 0.000000
vn 0.000000 1.000000 0.000000
vn -0.478900 0.000000 -0.877900
vn 0.000000 0.000000 -1.000000
s off
f 5/1/1 6/2/1 2/3/1 1/4/1
f 10/5/2 7/6/2 3/7/2 11/8/2
f 7/9/3 8/10/3 4/11/3 3/12/3
f 14/13/4 5/14/4 1/15/4 15/16/4
f 16/17/5 11/18/5 3/15/5 4/19/5
f 14/20/6 9/21/6 6/14/6 5/22/6
f 6/23/2 9/24/2 12/25/2 2/26/2
f 9/24/2 10/5/2 11/8/2 12/25/2
f 8/27/7 13/28/7 16/29/7 4/30/7
f 13/28/8 14/13/8 15/16/8 16/29/8
f 1/31/5 2/32/5 12/33/5 15/34/5
f 15/34/5 12/33/5 11/18/5 16/17/5
f 8/35/6 7/36/6 10/37/6 13/38/6
f 13/38/6 10/37/6 9/21/6 14/20/6
f 21/4/1 22/3/1 18/10/1 17/9/1
f 26/39/2 23/40/2 19/30/2 27/29/2
f 23/41/3 24/42/3 20/12/3 19/11/3
f 30/43/4 21/23/4 17/26/4 31/44/4
f 32/45/5 27/24/5 19/23/5 20/46/5
f 30/13/6 25/47/6 22/9/6 21/48/6
f 22/23/2 25/43/2 28/16/2 18/15/2
f 25/43/2 26/39/2 27/29/2 28/16/2
f 24/40/7 29/39/7 32/49/7 20/50/7
f 29/39/8 30/43/8 31/44/8 32/49/8
f 17/51/5 18/6/5 28/5/5 31/52/5
f 31/52/5 28/5/5 27/24/5 32/45/5
f 24/53/6 23/1/6 26/54/6 29/28/6
f 29/28/6 26/54/6 25/47/6 30/13/6
