# Blender v2.74 (sub 5) OBJ File: 'Walls.blend'
# www.blender.org
o Deco_wall_Cube.032
v 0.500000 -0.500000 0.200000
v 0.500000 -0.100000 0.200000
v 0.500000 -0.500000 0.400000
v 0.500000 -0.100000 0.400000
v -0.500000 -0.500000 0.200000
v -0.500000 -0.100000 0.200000
v -0.500000 -0.500000 0.400000
v -0.500000 -0.100000 0.400000
v 0.333333 -0.000000 0.400000
v 0.166667 -0.000000 0.400000
v 0.000000 -0.100000 0.400000
v -0.166667 -0.000000 0.400000
v -0.333333 -0.000000 0.400000
v -0.333333 -0.500000 0.400000
v -0.166667 -0.500000 0.400000
v 0.000000 -0.500000 0.400000
v 0.166667 -0.500000 0.400000
v 0.333333 -0.500000 0.400000
v -0.333333 -0.000000 0.200000
v -0.166667 -0.000000 0.200000
v 0.000000 -0.100000 0.200000
v 0.166667 -0.000000 0.200000
v 0.333333 -0.000000 0.200000
v 0.333333 -0.500000 0.200000
v 0.166667 -0.500000 0.200000
v 0.000000 -0.500000 0.200000
v -0.166667 -0.500000 0.200000
v -0.333333 -0.500000 0.200000
vt 0.348750 0.134350
vt 0.348750 0.490561
vt 0.002576 0.490561
vt 0.002576 0.134350
vt 0.986502 0.509574
vt 0.986502 0.863415
vt 0.642631 0.863415
vt 0.642631 0.509574
vt 0.347764 0.863415
vt 0.347764 0.509574
vt 0.003893 0.863415
vt 0.003893 0.509574
vt 0.991767 0.134350
vt 0.991767 0.490561
vt 0.645593 0.490561
vt 0.645593 0.134350
vt 0.192663 0.385326
vt 0.000000 0.385326
vt 0.000000 0.000000
vt 0.192663 0.000000
vt 0.165595 1.000000
vt 0.000000 0.900614
vt 0.000000 0.503070
vt 0.165595 0.503070
vt 1.000000 0.893822
vt 0.802606 0.893822
vt 0.802606 0.499034
vt 1.000000 0.499034
vt 0.164532 0.495791
vt 0.000000 0.396632
vt 0.164532 0.000000
vt 0.989881 0.399762
vt 0.824433 0.499472
vt 0.824433 0.000921
vt 0.989881 0.000921
vt 0.658985 0.499472
vt 0.658985 0.000921
vt 0.493537 0.399762
vt 0.493537 0.000920
vt 0.493595 0.396633
vt 0.329063 0.495791
vt 0.329063 0.000000
vt 0.493595 0.000000
vt 1.000000 0.901056
vt 0.835142 1.000000
vt 0.835141 0.505280
vt 1.000000 0.505279
vt 0.670283 1.000000
vt 0.670283 0.505280
vt 0.505424 0.901056
vt 0.505424 0.505280
vt 0.496785 0.900614
vt 0.331190 1.000000
vt 0.331190 0.503070
vt 0.496785 0.503070
vn 0.514500 0.857500 0.000000
vn -0.514500 0.857500 0.000000
vn 0.000000 1.000000 0.000000
vn 1.000000 0.000000 0.000000
vn 0.000000 0.000000 1.000000
vn -1.000000 0.000000 0.000000
vn 0.000000 0.000000 -1.000000
g Deco_wall_Cube.032_Split
s off
f 23/1/1 9/2/1 4/3/1 2/4/1
f 6/5/2 8/6/2 13/7/2 19/8/2
f 19/8/3 13/7/3 12/9/3 20/10/3
f 20/10/1 12/9/1 11/11/1 21/12/1
f 21/13/2 11/14/2 10/15/2 22/16/2
f 22/16/3 10/15/3 9/2/3 23/1/3
g Deco_wall_Cube.032_Smooth
f 2/17/4 4/18/4 3/19/4 1/20/4
f 13/21/5 8/22/5 7/23/5 14/24/5
f 8/25/6 6/26/6 5/27/6 7/28/6
f 23/29/7 2/30/7 1/19/7 24/31/7
f 6/32/7 19/33/7 28/34/7 5/35/7
f 19/33/7 20/36/7 27/37/7 28/34/7
f 20/36/7 21/38/7 26/39/7 27/37/7
f 21/40/7 22/41/7 25/42/7 26/43/7
f 22/41/7 23/29/7 24/31/7 25/42/7
f 4/44/5 9/45/5 18/46/5 3/47/5
f 9/45/5 10/48/5 17/49/5 18/46/5
f 10/48/5 11/50/5 16/51/5 17/49/5
f 11/52/5 12/53/5 15/54/5 16/55/5
f 12/53/5 13/21/5 14/24/5 15/54/5
